<svg width="318" height="76" viewBox="0 0 318 76" fill="none" xmlns="http://www.w3.org/2000/svg">
  <g clip-path="url(#clip0_1233_18016)">
    <g clip-path="url(#clip1_1233_18016)">
      <path d="M86.235 3.17034C86.235 1.41941 85.537 0 84.6761 0C83.8151 0 83.1172 1.41941 83.1172 3.17034V72.1595C83.1172 73.9104 83.8151 75.3298 84.6761 75.3298C85.537 75.3298 86.235 73.9104 86.235 72.1595V3.17034Z" fill="white"/>
      <g clip-path="url(#clip2_1233_18016)">
        <g clip-path="url(#clip3_1233_18016)">
          <g clip-path="url(#clip4_1233_18016)">
            <g clip-path="url(#clip5_1233_18016)">
              <path d="M101.272 2.27009C104.145 2.27009 106.647 2.70588 108.777 3.57745C110.908 4.44902 112.644 6.09532 113.987 8.51635C115.324 10.9374 115.992 14.3433 115.992 18.7331C115.992 24.9958 114.662 29.3692 112.002 31.8551C109.336 34.341 105.969 35.5834 101.902 35.5834H94.3965V2.27009H101.272ZM101.95 5.80479H98.8996V32.0972H102.192C104.969 32.0972 107.18 31.1355 108.826 29.2113C110.472 27.2938 111.295 23.8008 111.295 18.7331C111.295 15.1819 110.869 12.4549 110.017 10.55C109.158 8.64514 108.061 7.37652 106.724 6.74415C105.381 6.11759 103.79 5.80479 101.95 5.80479ZM122.529 2.27009H127.032V35.5834H122.529V2.27009ZM146.788 1.64062C148.659 1.64062 150.3 1.93793 151.707 2.53156C153.108 3.13198 154.486 4.04519 155.842 5.27217L153.421 7.79004C152.324 6.88651 151.274 6.2309 150.274 5.82416C149.273 5.42421 148.143 5.22375 146.884 5.22375C144.367 5.22375 142.301 6.29578 140.687 8.43887C139.072 10.5887 138.266 14.0682 138.266 18.8783C138.266 23.7853 138.943 27.2938 140.299 29.405C141.655 31.5229 143.689 32.5814 146.4 32.5814C148.402 32.5814 150.209 32.0972 151.823 31.1288V20.7183H146.739L146.255 17.1836H156.181V33.2108C153.114 35.2125 149.855 36.2129 146.4 36.2129C142.268 36.2129 139.089 34.7671 136.861 31.8744C134.634 28.9886 133.52 24.6404 133.52 18.8299C133.52 15.0851 134.118 11.9222 135.312 9.3395C136.506 6.75674 138.113 4.8267 140.135 3.54839C142.149 2.27687 144.367 1.64062 146.788 1.64062ZM162.96 2.27009H167.463V35.5834H162.96V2.27009ZM172.063 2.27009H193.707L193.174 5.95006H184.991V35.5834H180.488V5.95006H172.063V2.27009ZM219.079 35.5834H214.431L212.204 27.1098H201.019L198.791 35.5834H194.288L203.924 2.27009H209.444L219.079 35.5834ZM206.635 5.85321L201.939 23.5751H211.284L206.635 5.85321ZM223.534 2.27009H228.037V31.7582H240.191L239.707 35.5834H223.534V2.27009Z" fill="white"/>
              <path d="M94.3965 39.7476H110.956L110.424 43.2339H98.8996V54.2254H108.923V57.7117H98.8996V69.5263H111.102V73.061H94.3965V39.7476ZM128.146 39.1182C129.889 39.1182 131.406 39.3825 132.697 39.9123C133.988 40.4478 135.263 41.2806 136.522 42.4108L134.198 45.1223C133.262 44.3156 132.336 43.7181 131.419 43.3308C130.496 42.9434 129.485 42.7497 128.388 42.7497C125.87 42.7497 123.868 43.8217 122.384 45.9648C120.899 48.1147 120.156 51.5787 120.156 56.3559C120.156 61.0043 120.899 64.4324 122.384 66.6404C123.868 68.8552 125.87 69.9621 128.388 69.9621C129.647 69.9621 130.728 69.7364 131.632 69.2842C132.535 68.8319 133.52 68.1705 134.586 67.2989L136.861 69.9621C134.44 72.448 131.535 73.6905 128.146 73.6905C125.66 73.6905 123.459 73.0445 121.541 71.7536C119.617 70.4627 118.116 68.5162 117.038 65.9141C115.953 63.3188 115.411 60.1327 115.411 56.3559C115.411 52.611 115.97 49.4482 117.086 46.8655C118.197 44.2827 119.714 42.3459 121.638 41.055C123.555 39.7641 125.725 39.1182 128.146 39.1182ZM152.792 39.1182C156.762 39.1182 159.887 40.5776 162.166 43.4954C164.439 46.42 165.575 50.7226 165.575 56.4043C165.575 61.9891 164.445 66.2656 162.185 69.2358C159.926 72.2059 156.794 73.6905 152.792 73.6905C148.821 73.6905 145.7 72.2282 143.427 69.3036C141.148 66.3857 140.009 62.1015 140.009 56.4527C140.009 52.7408 140.535 49.5838 141.587 46.9817C142.633 44.3863 144.118 42.4272 146.042 41.1034C147.959 39.7796 150.209 39.1182 152.792 39.1182ZM152.792 42.7013C147.433 42.7013 144.754 47.2848 144.754 56.4527C144.754 65.5238 147.433 70.0589 152.792 70.0589C155.438 70.0589 157.44 68.9772 158.796 66.8147C160.152 64.6523 160.83 61.1815 160.83 56.4043C160.83 51.6591 160.145 48.1893 158.776 45.9939C157.401 43.7985 155.406 42.7013 152.792 42.7013ZM180.004 39.1182C181.973 39.1182 183.694 39.4406 185.166 40.0866C186.631 40.7325 188.01 41.7009 189.301 42.9918L187.025 45.5581C185.928 44.5897 184.839 43.8702 183.761 43.3985C182.677 42.9337 181.505 42.7013 180.246 42.7013C178.632 42.7013 177.334 43.1439 176.353 44.028C175.365 44.9189 174.871 46.0907 174.871 47.5433C174.871 48.5118 175.065 49.3417 175.453 50.0322C175.84 50.7294 176.501 51.3589 177.438 51.9206C178.374 52.489 179.697 53.0633 181.408 53.6443C183.377 54.3542 184.991 55.1134 186.25 55.9201C187.509 56.7268 188.478 57.7601 189.156 59.019C189.833 60.278 190.172 61.8594 190.172 63.7642C190.172 65.6691 189.737 67.3696 188.865 68.8678C187.993 70.3717 186.744 71.5503 185.117 72.4025C183.484 73.2614 181.57 73.6905 179.375 73.6905C175.339 73.6905 171.901 72.2378 169.061 69.3326L171.434 66.7663C172.628 67.8316 173.848 68.645 175.094 69.2067C176.334 69.7752 177.712 70.0589 179.229 70.0589C181.134 70.0589 182.66 69.5166 183.81 68.432C184.953 67.3541 185.524 65.8628 185.524 63.9579C185.524 62.3116 185.066 61.0043 184.149 60.0359C183.226 59.0674 181.537 58.1639 179.084 57.3243C175.953 56.2271 173.703 54.9517 172.334 53.4991C170.959 52.0465 170.272 50.1581 170.272 47.8339C170.272 46.1876 170.685 44.6933 171.511 43.3501C172.331 42.0137 173.484 40.9746 174.968 40.2318C176.453 39.4891 178.132 39.1182 180.004 39.1182ZM211.235 39.7476H215.932L206.345 60.2295V73.061H201.793V60.278L192.206 39.7476H197.048L204.166 56.4043L211.235 39.7476ZM228.134 39.1182C230.103 39.1182 231.824 39.4406 233.296 40.0866C234.761 40.7325 236.14 41.7009 237.431 42.9918L235.155 45.5581C234.058 44.5897 232.969 43.8702 231.892 43.3985C230.807 42.9337 229.635 42.7013 228.376 42.7013C226.762 42.7013 225.464 43.1439 224.483 44.028C223.495 44.9189 223.002 46.0907 223.002 47.5433C223.002 48.5118 223.195 49.3417 223.583 50.0322C223.97 50.7294 224.631 51.3589 225.568 51.9206C226.504 52.489 227.827 53.0633 229.538 53.6443C231.507 54.3542 233.121 55.1134 234.38 55.9201C235.639 56.7268 236.608 57.7601 237.286 59.019C237.963 60.278 238.302 61.8594 238.302 63.7642C238.302 65.6691 237.867 67.3696 236.995 68.8678C236.123 70.3717 234.874 71.5503 233.247 72.4025C231.614 73.2614 229.7 73.6905 227.505 73.6905C223.469 73.6905 220.031 72.2378 217.191 69.3326L219.564 66.7663C220.758 67.8316 221.978 68.645 223.224 69.2067C224.464 69.7752 225.842 70.0589 227.359 70.0589C229.264 70.0589 230.79 69.5166 231.94 68.432C233.083 67.3541 233.654 65.8628 233.654 63.9579C233.654 62.3116 233.196 61.0043 232.279 60.0359C231.356 59.0674 229.667 58.1639 227.214 57.3243C224.083 56.2271 221.833 54.9517 220.464 53.4991C219.089 52.0465 218.402 50.1581 218.402 47.8339C218.402 46.1876 218.815 44.6933 219.641 43.3501C220.461 42.0137 221.614 40.9746 223.098 40.2318C224.583 39.4891 226.262 39.1182 228.134 39.1182ZM240.675 39.7476H262.319L261.786 43.4276H253.603V73.061H249.1V43.4276H240.675V39.7476ZM266.677 39.7476H283.237L282.704 43.2339H271.18V54.2254H281.203V57.7117H271.18V69.5263H283.382V73.061H266.677V39.7476ZM314.468 39.7476L317.034 73.061H312.725L311.708 58.0022C311.256 51.2553 311.014 46.6069 310.982 44.0571L304.59 69.2842H300.378L293.696 44.0571C293.728 46.8655 293.55 51.5458 293.163 58.099L292.195 73.061H287.934L290.5 39.7476H296.359L302.557 64.3937L308.512 39.7476H314.468Z" fill="white"/>
            </g>
          </g>
        </g>
      </g>
      <g clip-path="url(#clip6_1233_18016)">
        <g clip-path="url(#clip7_1233_18016)">
          <path d="M74.955 43.7098V31.6203H70.7866C70.4577 29.802 69.9742 28.0019 69.3443 26.2477L72.9579 24.161L66.9131 13.6915L63.2935 15.7818C62.0942 14.3673 60.7765 13.0508 59.3632 11.8515L61.4535 8.23187L50.9839 2.18711L48.8973 5.79946C47.1395 5.16838 45.3393 4.68601 43.5223 4.35597V0.1875H31.4328V4.35597C29.6157 4.6848 27.8156 5.16838 26.059 5.79825L23.9735 2.1859L13.504 8.23066L15.5943 11.8503C14.1798 13.0495 12.8633 14.3661 11.664 15.7806L8.04316 13.6915L1.9984 24.161L5.61196 26.2477C4.98209 28.0019 4.49851 29.802 4.16847 31.6203H0V43.7098H4.16847C4.4973 45.528 4.98088 47.3282 5.61075 49.0824L1.9984 51.169L8.04316 61.6385L11.6628 59.5483C12.862 60.9627 14.1798 62.2793 15.5931 63.4786L13.5028 67.0982L23.9723 73.1429L26.059 69.5306C27.8156 70.1605 29.6157 70.644 31.4328 70.9729V75.1425H43.5223V70.9741C45.3393 70.6452 47.1395 70.1617 48.8961 69.5318L50.9827 73.1441L61.4523 67.0994L59.362 63.4798C60.7765 62.2805 62.093 60.964 63.2923 59.5495L66.9119 61.6398L72.9566 51.1702L69.3431 49.0836C69.973 47.3294 70.4565 45.5293 70.7854 43.711L74.955 43.7098ZM69.6538 52.054L66.0269 58.3345L62.7132 56.4231L62.064 57.2367C60.5891 59.0864 58.9014 60.7741 57.0492 62.2503L56.2356 62.8995L58.1482 66.212L51.8665 69.8389L49.9563 66.5312L48.988 66.912C46.7659 67.7873 44.4604 68.4051 42.1368 68.7508L41.1044 68.9056V72.7246H33.8507V68.9056L32.8194 68.752C30.4946 68.4075 28.1891 67.7885 25.9683 66.9132L24.9999 66.5324L23.0898 69.8401L16.8081 66.2132L18.7206 62.9007L17.907 62.2515C16.0537 60.7741 14.3672 59.0877 12.8923 57.238L12.2431 56.4243L8.92932 58.3357L5.30247 52.0552L8.61137 50.145L8.23055 49.1755C7.35647 46.9558 6.7387 44.6503 6.39173 42.3231L6.23698 41.2919H2.4179V34.0382H6.23698L6.39052 33.0069C6.73628 30.6797 7.35406 28.3742 8.22934 26.1546L8.61016 25.185L5.30126 23.2749L8.92811 16.9944L12.2419 18.9057L12.8911 18.0921C14.366 16.2424 16.0537 14.5547 17.9058 13.0786L18.7194 12.4294L16.8069 9.11682L23.0886 5.48997L24.9987 8.79766L25.9671 8.41684C28.1891 7.54156 30.4946 6.92378 32.8182 6.57802L33.8507 6.42448V2.6054H41.1044V6.42448L42.1356 6.57802C44.4604 6.92257 46.7659 7.54156 48.9867 8.41684L49.9551 8.79766L51.8653 5.48997L58.147 9.11682L56.2344 12.4294L57.048 13.0786C58.9014 14.5559 60.5879 16.2424 62.0628 18.0921L62.712 18.9057L66.0257 16.9944L69.6526 23.2749L66.3437 25.185L66.7245 26.1546C67.5986 28.3742 68.2163 30.6797 68.5633 33.0069L68.7181 34.0382H72.5371V41.2919H68.7181L68.5645 42.3231C68.2188 44.6503 67.601 46.9558 66.7257 49.1755L66.3449 50.145L69.6538 52.054Z" fill="white"/>
          <path d="M38.6865 55.7988H36.2686V58.2167H38.6865V55.7988Z" fill="white"/>
          <path d="M38.6865 65.4707H36.2686V67.8886H38.6865V65.4707Z" fill="white"/>
          <path d="M14.5078 25.9996V51.7491L36.269 61.422V63.0528H38.6869V61.4207L60.448 51.7479V25.9996L37.4779 15.79L14.5078 25.9996ZM41.621 43.6129L41.1048 43.9743V46.1275H38.6869V41.0692C40.0905 40.5687 41.1048 39.2389 41.1048 37.6648C41.1048 35.6652 39.4775 34.038 37.4779 34.038C35.4783 34.038 33.8511 35.6652 33.8511 37.6648C33.8511 39.2389 34.8654 40.5687 36.269 41.0692V46.1275H33.8511V43.9743L33.3348 43.6129C31.3872 42.2528 30.2242 40.0295 30.2242 37.6648C30.2242 33.6644 33.4775 30.4111 37.4779 30.4111C41.4783 30.4111 44.7316 33.6644 44.7316 37.6648C44.7316 40.0295 43.5686 42.2528 41.621 43.6129ZM33.8511 48.5454H41.1048V50.9633H33.8511V48.5454ZM36.269 37.6648C36.269 36.9975 36.8118 36.4559 37.4779 36.4559C38.144 36.4559 38.6869 36.9975 38.6869 37.6648C38.6869 38.3322 38.144 38.8738 37.4779 38.8738C36.8118 38.8738 36.269 38.3322 36.269 37.6648ZM36.269 28.0766C33.6661 28.403 31.3848 29.7667 29.8482 31.7422L18.6932 26.7843L36.269 18.9732V28.0766ZM38.6869 28.0766V18.9732L56.2626 26.7843L45.1076 31.7422C43.571 29.7667 41.2897 28.4042 38.6869 28.0766ZM37.4779 59.3111L16.9257 50.1775V28.6448L28.6006 33.8349C28.0916 35.01 27.8063 36.3048 27.8063 37.6648C27.8063 40.6038 29.1506 43.3783 31.4331 45.2087V46.1275H29.0152V48.5454H31.4331V53.3812H43.5227V48.5454H45.9406V46.1275H43.5227V45.2087C45.8052 43.3771 47.1495 40.6026 47.1495 37.6648C47.1495 36.3048 46.8642 35.01 46.3552 33.8349L58.0301 28.6448V50.1775L37.4779 59.3111Z" fill="white"/>
        </g>
      </g>
    </g>
  </g>
  <defs>
    <clipPath id="clip0_1233_18016">
      <rect width="317.034" height="75.3298" fill="white"/>
    </clipPath>
    <clipPath id="clip1_1233_18016">
      <rect width="317.034" height="75.3298" fill="white"/>
    </clipPath>
    <clipPath id="clip2_1233_18016">
      <rect width="222.638" height="74.955" fill="white" transform="translate(94.3965 0.1875)"/>
    </clipPath>
    <clipPath id="clip3_1233_18016">
      <rect width="222.638" height="74.955" fill="white" transform="translate(94.3965 0.1875)"/>
    </clipPath>
    <clipPath id="clip4_1233_18016">
      <rect width="222.638" height="74.955" fill="white" transform="translate(94.3965 0.1875)"/>
    </clipPath>
    <clipPath id="clip5_1233_18016">
      <rect width="222.638" height="74.955" fill="white" transform="translate(94.3965 0.1875)"/>
    </clipPath>
    <clipPath id="clip6_1233_18016">
      <rect width="74.955" height="74.955" fill="white" transform="translate(0 0.1875)"/>
    </clipPath>
    <clipPath id="clip7_1233_18016">
      <rect width="74.955" height="74.955" fill="white" transform="translate(0 0.1875)"/>
    </clipPath>
  </defs>
</svg>
